<svg
 xmlns="http://www.w3.org/2000/svg"
 xmlns:xlink="http://www.w3.org/1999/xlink"
 width="100px" height="26px">
<path fill-rule="evenodd"  fill="rgb(255, 255, 255)"
 d="M99.879,23.689 L99.879,23.697 C98.456,24.969 96.530,25.764 94.401,25.801 C94.383,25.801 85.197,25.801 80.303,25.801 C80.069,25.801 79.840,25.801 79.627,25.801 L79.127,25.801 C77.379,25.801 75.943,25.006 75.004,23.888 C74.116,24.996 72.792,25.801 71.056,25.801 L69.783,25.801 C69.593,25.801 69.536,25.680 69.515,25.594 C69.510,25.594 69.515,25.510 69.515,25.510 C69.848,23.929 72.160,23.192 72.160,23.192 C73.125,22.789 73.689,21.545 73.809,20.565 C73.809,19.224 73.809,12.482 73.809,8.893 C72.034,8.893 69.977,8.893 69.977,8.893 C69.674,8.893 69.682,8.583 69.682,8.583 L69.682,7.262 L69.682,7.261 C69.682,6.682 70.145,6.213 70.717,6.213 C70.717,6.213 76.062,6.212 76.066,6.214 C76.220,6.236 76.340,6.363 76.340,6.512 C76.340,6.552 76.340,7.030 76.340,7.548 C76.340,8.190 76.340,8.893 76.340,8.893 C76.340,12.039 76.340,19.668 76.340,20.187 C76.340,20.270 76.332,20.356 76.328,20.440 C76.452,21.663 77.451,23.140 79.145,23.140 L99.681,23.140 C99.690,23.140 99.696,23.138 99.704,23.140 C99.870,23.164 100.000,23.291 100.000,23.451 C100.000,23.547 99.952,23.630 99.879,23.689 ZM92.339,10.599 C92.316,10.599 89.456,10.599 86.322,10.599 L82.248,17.345 L93.899,17.345 L92.530,13.941 C92.425,13.778 92.473,13.562 92.636,13.457 C92.792,13.356 92.981,13.393 92.981,13.393 C92.981,13.393 96.176,14.329 97.590,17.448 C97.616,17.585 97.635,17.725 97.635,17.867 C97.635,19.032 96.689,19.977 95.522,19.977 C95.521,19.977 95.519,19.977 95.519,19.977 L80.664,19.976 C79.531,19.935 78.617,19.005 78.617,17.864 C78.617,17.612 78.664,17.372 78.746,17.150 C78.752,17.111 78.854,16.904 78.854,16.904 C78.892,16.831 81.499,12.629 82.759,10.599 C80.272,10.599 78.275,10.599 78.275,10.599 C77.967,10.599 77.975,10.288 77.975,10.288 L77.975,8.837 C77.975,8.256 78.446,7.784 79.028,7.784 C79.028,7.784 97.497,7.781 97.505,7.784 C97.668,7.810 97.793,7.954 97.793,8.122 C97.793,8.224 97.676,8.382 97.676,8.382 C96.289,9.725 94.413,10.561 92.339,10.599 ZM91.650,3.215 C91.601,3.216 79.487,3.215 79.487,3.215 C79.183,3.215 79.190,2.909 79.190,2.909 L79.190,1.475 L79.190,1.474 C79.190,0.899 79.656,0.433 80.232,0.433 C80.232,0.433 96.749,0.431 96.756,0.433 C96.917,0.458 97.042,0.601 97.042,0.767 C97.042,0.867 96.925,1.024 96.925,1.024 C95.555,2.351 93.700,3.177 91.650,3.215 ZM75.993,3.835 C75.989,3.838 75.979,3.846 75.979,3.846 L72.281,3.842 C71.920,3.842 71.305,3.363 71.305,2.773 L71.305,1.363 C71.305,1.020 71.515,0.784 71.841,0.784 C72.167,0.784 72.763,0.783 72.793,0.784 C74.385,0.784 75.240,1.876 76.099,3.238 L76.099,3.247 C76.142,3.310 76.172,3.399 76.172,3.503 C76.172,3.674 76.094,3.810 75.993,3.835 ZM68.614,23.697 C67.190,24.969 65.264,25.764 63.135,25.801 C63.117,25.801 53.931,25.801 49.037,25.801 C48.803,25.801 48.574,25.801 48.361,25.801 L47.861,25.801 C46.113,25.801 44.677,25.006 43.739,23.888 C42.850,24.996 41.526,25.801 39.790,25.801 L38.517,25.801 C38.327,25.801 38.269,25.680 38.249,25.594 C38.243,25.594 38.249,25.510 38.249,25.510 C38.582,23.929 40.895,23.192 40.895,23.192 C41.862,22.788 42.426,21.538 42.544,20.556 C42.544,19.194 42.544,12.474 42.544,8.893 C40.769,8.893 38.711,8.893 38.711,8.893 C38.408,8.893 38.415,8.583 38.415,8.583 L38.415,7.262 L38.415,7.261 C38.415,6.682 38.879,6.213 39.451,6.213 C39.451,6.213 44.796,6.212 44.800,6.214 C44.954,6.236 45.074,6.363 45.074,6.512 C45.074,6.552 45.074,7.030 45.074,7.548 C45.074,8.190 45.074,8.893 45.074,8.893 C45.074,12.039 45.074,19.668 45.074,20.187 C45.074,20.269 45.066,20.355 45.062,20.438 C45.185,21.661 46.184,23.140 47.879,23.140 L68.415,23.140 C68.424,23.140 68.430,23.138 68.438,23.140 C68.605,23.164 68.734,23.291 68.734,23.451 C68.734,23.547 68.686,23.630 68.613,23.689 L68.614,23.697 ZM66.741,22.291 C62.623,21.725 61.085,17.806 60.642,15.493 C60.014,15.493 59.213,15.493 58.303,15.493 C58.303,17.286 58.303,18.966 58.303,20.168 L58.303,21.987 L58.303,21.988 L58.303,21.997 C58.303,22.242 58.152,22.302 57.999,22.302 L56.535,22.302 C55.952,22.302 55.479,21.824 55.479,21.233 L55.478,16.272 C55.477,16.260 55.476,16.247 55.475,16.234 C55.475,16.228 55.475,15.954 55.475,15.493 C54.691,15.493 53.902,15.493 53.137,15.493 C52.693,17.806 51.155,21.725 47.037,22.291 C46.787,22.345 46.668,22.193 46.665,22.190 C46.496,21.980 46.684,21.777 46.684,21.777 C47.705,20.508 49.738,18.834 50.208,15.493 C48.770,15.493 47.794,15.493 47.794,15.493 C47.505,15.493 47.512,15.202 47.512,15.202 L47.512,13.984 L47.512,13.846 L47.512,8.423 L47.512,7.267 L47.512,7.142 C47.512,6.629 47.955,6.212 48.501,6.212 C48.501,6.212 51.767,6.212 55.475,6.212 C55.475,5.377 55.475,4.575 55.475,3.846 C51.615,3.845 47.289,3.845 47.289,3.845 C46.985,3.845 46.992,3.535 46.992,3.535 L46.992,2.081 C46.992,1.500 47.459,1.027 48.034,1.027 C48.034,1.027 51.528,1.027 55.475,1.027 L55.475,0.315 L55.475,0.315 L55.475,0.305 C55.475,0.060 55.626,-0.000 55.779,-0.000 L57.243,-0.000 C57.811,-0.000 58.272,0.456 58.295,1.026 C62.542,1.026 66.497,1.026 66.501,1.027 C66.661,1.053 66.786,1.196 66.786,1.365 C66.786,1.467 66.670,1.626 66.670,1.626 C65.299,2.970 63.444,3.807 61.393,3.845 C61.379,3.845 60.086,3.846 58.300,3.846 L58.300,5.495 C58.300,5.508 58.302,5.521 58.303,5.533 C58.303,5.540 58.303,5.787 58.303,6.212 C62.295,6.211 65.993,6.211 65.996,6.212 C66.148,6.235 66.266,6.362 66.266,6.511 C66.266,6.562 66.266,7.246 66.266,7.835 C66.266,8.295 66.266,8.697 66.266,8.697 C66.266,9.535 66.266,10.739 66.266,11.151 C66.266,12.994 65.104,14.546 63.536,15.182 C63.920,18.729 66.042,20.470 67.095,21.777 C67.095,21.777 67.282,21.980 67.113,22.190 C67.110,22.193 66.991,22.345 66.741,22.291 ZM55.475,8.697 C53.425,8.697 51.465,8.697 50.008,8.697 L50.008,12.862 C51.304,12.862 53.299,12.861 55.475,12.861 C55.475,11.628 55.475,10.174 55.475,8.697 ZM63.770,8.698 C62.308,8.698 60.353,8.698 58.303,8.698 C58.303,9.911 58.303,11.366 58.303,12.861 C59.628,12.861 60.935,12.860 62.108,12.860 C63.116,12.860 63.770,12.008 63.770,11.193 C63.770,10.686 63.770,9.513 63.770,8.698 ZM44.727,3.835 C44.722,3.838 44.713,3.846 44.713,3.846 L41.015,3.842 C40.655,3.842 40.039,3.363 40.039,2.773 L40.039,1.363 C40.039,1.020 40.249,0.784 40.575,0.784 C40.901,0.784 41.497,0.783 41.527,0.784 C43.119,0.784 43.974,1.876 44.833,3.238 L44.833,3.247 C44.877,3.310 44.905,3.399 44.905,3.503 C44.905,3.674 44.827,3.810 44.727,3.835 ZM31.358,12.680 C32.499,13.094 33.420,13.732 34.121,14.594 C35.008,15.683 35.451,17.016 35.451,18.588 C35.451,20.977 34.730,22.809 33.289,24.086 C31.849,25.362 29.786,26.000 27.100,26.000 C24.415,26.000 22.352,25.362 20.911,24.086 C19.470,22.809 18.750,20.977 18.750,18.588 C18.750,17.016 19.196,15.683 20.087,14.594 C20.793,13.732 21.716,13.094 22.858,12.680 L22.858,12.677 C22.974,12.633 23.057,12.522 23.057,12.389 C23.057,12.267 22.986,12.165 22.886,12.114 L22.886,12.109 C21.906,11.726 21.112,11.158 20.503,10.401 C19.715,9.423 19.321,8.228 19.321,6.819 C19.321,4.850 20.014,3.293 21.400,2.149 C22.787,1.004 24.686,0.432 27.100,0.432 C29.525,0.432 31.428,1.004 32.808,2.149 C34.190,3.293 34.880,4.850 34.880,6.819 C34.880,8.228 34.486,9.423 33.697,10.401 C33.095,11.150 32.313,11.716 31.352,12.098 L31.352,12.101 C31.235,12.144 31.151,12.255 31.151,12.389 C31.151,12.525 31.238,12.637 31.358,12.679 L31.358,12.680 ZM31.618,7.133 C31.618,5.857 31.218,4.861 30.419,4.145 C29.620,3.431 28.514,3.073 27.100,3.073 C25.676,3.073 24.570,3.431 23.781,4.145 C22.993,4.861 22.599,5.857 22.599,7.133 C22.599,8.410 22.993,9.406 23.781,10.121 C24.570,10.836 25.676,11.194 27.100,11.194 C28.514,11.194 29.620,10.836 30.419,10.121 C31.218,9.406 31.618,8.410 31.618,7.133 ZM30.811,15.089 C29.914,14.242 28.677,13.819 27.100,13.819 C25.535,13.819 24.304,14.242 23.406,15.089 C22.509,15.937 22.061,17.103 22.061,18.588 C22.061,20.074 22.509,21.241 23.406,22.088 C24.304,22.936 25.535,23.359 27.100,23.359 C28.666,23.359 29.900,22.932 30.802,22.080 C31.705,21.228 32.157,20.064 32.157,18.588 C32.157,17.103 31.708,15.937 30.811,15.089 ZM7.833,25.769 L7.836,25.776 C7.802,25.776 7.770,25.774 7.735,25.774 C7.722,25.774 7.709,25.776 7.694,25.776 C7.659,25.776 7.625,25.772 7.589,25.771 C1.698,25.673 0.280,22.138 0.043,21.370 C0.033,21.348 0.022,21.313 0.012,21.266 C0.005,21.239 0.001,21.222 0.001,21.222 L0.007,21.225 C0.000,21.174 -0.000,21.121 0.024,21.079 C0.034,21.061 0.045,21.052 0.056,21.037 C0.091,20.999 0.155,20.955 0.254,20.973 C0.313,20.982 0.383,21.012 0.466,21.079 C0.466,21.079 2.204,22.729 6.201,22.987 C6.381,23.003 6.562,23.008 6.741,23.014 C6.902,23.017 7.091,23.017 7.308,23.007 C7.573,22.998 7.821,22.972 8.062,22.942 C8.169,22.929 8.275,22.914 8.388,22.896 C10.460,22.545 11.605,21.458 12.217,20.589 C12.276,20.502 12.336,20.415 12.391,20.325 C12.454,20.223 12.509,20.127 12.557,20.037 C12.598,19.956 12.641,19.874 12.679,19.789 C12.705,19.734 12.730,19.678 12.754,19.621 C12.780,19.554 12.805,19.487 12.829,19.418 C13.047,18.830 13.172,18.198 13.172,17.537 C13.172,15.578 12.129,13.861 10.560,12.879 L10.559,12.874 C10.521,12.852 10.484,12.833 10.445,12.811 C10.184,12.656 9.910,12.519 9.623,12.407 C5.568,10.714 1.355,13.103 1.355,13.103 C1.353,13.104 1.262,13.141 1.213,13.141 C1.047,13.141 0.913,13.005 0.913,12.837 L0.913,12.226 L0.913,2.174 C0.913,1.622 1.355,1.175 1.900,1.175 L6.121,1.175 L8.584,1.175 L14.326,1.175 L15.258,1.175 C15.423,1.175 15.557,1.311 15.557,1.477 C15.557,1.658 15.443,1.758 15.443,1.758 C14.966,2.227 14.426,2.628 13.842,2.957 C12.788,3.550 11.584,3.898 10.300,3.923 L4.169,3.923 L4.169,3.923 C4.004,3.923 3.871,4.057 3.869,4.224 L3.868,4.226 L3.868,9.422 C3.868,9.589 4.002,9.724 4.167,9.724 C4.191,9.724 4.256,9.714 4.264,9.711 C4.451,9.656 4.638,9.608 4.826,9.566 C5.725,9.264 6.688,9.091 7.694,9.091 C9.614,9.091 11.383,9.696 12.820,10.708 C14.871,12.152 16.233,14.436 16.361,17.034 C16.368,17.185 16.378,17.334 16.379,17.489 C16.356,20.906 14.195,23.833 11.116,25.101 C10.106,25.517 8.997,25.751 7.833,25.769 Z"/>
</svg>